<svg xmlns="http://www.w3.org/2000/svg" viewBox="0 0 100.4 38.48"><defs><style>.cls-1,.cls-2{fill:#ffd28f;}.cls-2{font-size:13px;stroke:#ffd28f;stroke-miterlimit:10;stroke-width:0.25px;font-family:adelia;}</style></defs><g id="Outline"><path class="cls-1" d="M41,13C31-1,19,10,19,10,14,9-4,12,0,25.45s12,11,12,11V43c19,4,30-2,30-2l-1-6c1,0,10-1,12-10C55,11,41,13,41,13ZM14.23,40.34,14,34c13.23-7.11,24-1,24-1l1,7C29,35,14.23,40.34,14.23,40.34ZM38,31s2.46-3.6,2-5.55A9.2,9.2,0,0,1,32.5,29.5s3-5,1-10c0,0,1,9-7,10A5.53,5.53,0,0,0,27.57,24c-.48.15-8.57,12-17.07-.46a10.8,10.8,0,0,0,4,8s-4,6-10-1a10,10,0,0,1-2-10c2-6,8-8,13-8A12.44,12.44,0,0,1,12,15s7-1,10-4,13-6,17,5c0,0-2,2-2,4,0,0,5-8,12-3S48,37,38,31Z" transform="translate(0.59 -5.89)"/></g><g id="Text"><text class="cls-2" transform="translate(55.4 24.75)">Pasta</text></g></svg>